<svg xmlns="http://www.w3.org/2000/svg" viewBox="0 0 292.09 96.6"><defs><style>.cls-1{fill:#fff;}</style></defs><g id="Layer_2" data-name="Layer 2"><g id="Layer_1-2" data-name="Layer 1"><path class="cls-1" d="M27.05,7.92a1.46,1.46,0,0,1,1.46,1.46V36.6q0,6.66-3.75,10.26t-10.11,3.6Q8,50.46,4,46.68a13.36,13.36,0,0,1-4-9.16,1.48,1.48,0,0,1,1.47-1.58h7.3a1.48,1.48,0,0,1,1.46,1.32,5.21,5.21,0,0,0,1,2.67,3.76,3.76,0,0,0,3.12,1.35,3.57,3.57,0,0,0,2.88-1.2,5.24,5.24,0,0,0,1-3.48V9.38a1.46,1.46,0,0,1,1.46-1.46Z"/><path class="cls-1" d="M66.81,35.76H46.7a1.48,1.48,0,0,0-1.43,1.87A6,6,0,0,0,47,40.53a6.14,6.14,0,0,0,4.35,1.65,5.4,5.4,0,0,0,5-2.58,1.41,1.41,0,0,1,1.23-.66h8A1.49,1.49,0,0,1,66.88,41a15.07,15.07,0,0,1-7.83,8,17.63,17.63,0,0,1-7.38,1.5,18,18,0,0,1-8.76-2.1,14.94,14.94,0,0,1-6-6,18.52,18.52,0,0,1-2.16-9.12,18.73,18.73,0,0,1,2.13-9.12,14.74,14.74,0,0,1,6-6,18.08,18.08,0,0,1,8.82-2.1,17.9,17.9,0,0,1,8.64,2,14.65,14.65,0,0,1,5.91,5.82,17.67,17.67,0,0,1,2.13,8.82c0,.52,0,1.06-.06,1.6A1.5,1.5,0,0,1,66.81,35.76Zm-10.67-5.7a1.49,1.49,0,0,0,1.4-2,5,5,0,0,0-1.49-2.21,6.63,6.63,0,0,0-4.5-1.56,6.5,6.5,0,0,0-4.35,1.5A5.82,5.82,0,0,0,45.57,28a1.48,1.48,0,0,0,1.38,2Z"/><path class="cls-1" d="M88.51,17.79a11.35,11.35,0,0,1,4.37-1.49,1.46,1.46,0,0,1,1.63,1.46v7.83A1.47,1.47,0,0,1,93,27.06H91.69q-3.84,0-5.76,1.65T84,34.5V48.57A1.47,1.47,0,0,1,82.54,50H75.22a1.47,1.47,0,0,1-1.47-1.47V18a1.47,1.47,0,0,1,1.47-1.47h7.32A1.47,1.47,0,0,1,84,18v.16a1.46,1.46,0,0,0,2.41,1.12A13.61,13.61,0,0,1,88.51,17.79Z"/><path class="cls-1" d="M105.82,48.42a15.38,15.38,0,0,1-6.18-6,17.93,17.93,0,0,1-2.25-9.12,17.78,17.78,0,0,1,2.28-9.09,15.47,15.47,0,0,1,6.24-6,19.82,19.82,0,0,1,17.76,0,15.47,15.47,0,0,1,6.24,6,17.78,17.78,0,0,1,2.28,9.09,17.6,17.6,0,0,1-2.31,9.09,15.62,15.62,0,0,1-6.3,6,18.83,18.83,0,0,1-8.91,2.1A18.48,18.48,0,0,1,105.82,48.42Zm13.86-8.94a8.58,8.58,0,0,0,2.07-6.18c0-3.87-1.4-6.45-4.18-7.73a6.91,6.91,0,0,0-3-.61,6.45,6.45,0,0,0-4.79,2.13q-2,2.13-2,6.21a8.91,8.91,0,0,0,2,6.18,6.31,6.31,0,0,0,4.89,2.16A6.68,6.68,0,0,0,119.68,39.48ZM122.59,8,108.13,14h0V7h0l14.45-7h0V8Z"/><path class="cls-1" d="M167.44,20Q171,23.82,171,30.48V48.76A1.28,1.28,0,0,1,169.67,50H162a1.27,1.27,0,0,1-1.27-1.28V31.86A7.35,7.35,0,0,0,159,26.64a6.82,6.82,0,0,0-9.36,0,7.35,7.35,0,0,0-1.74,5.22v16.9A1.28,1.28,0,0,1,146.63,50h-7.71a1.27,1.27,0,0,1-1.27-1.28V17.83a1.27,1.27,0,0,1,1.27-1.27h7.71a1.27,1.27,0,0,1,1.28,1.27h0a1.27,1.27,0,0,0,2,1,11.24,11.24,0,0,1,2.16-1.35,13.35,13.35,0,0,1,5.94-1.29A12.15,12.15,0,0,1,167.44,20Z"/><path class="cls-1" d="M178.84,11.49a5.51,5.51,0,0,1-1.68-4.59,5.16,5.16,0,0,1,1.68-3.33A6.22,6.22,0,0,1,183.25,2a6.14,6.14,0,0,1,4.35,1.59,5.14,5.14,0,0,1,1.68,3.37,5.51,5.51,0,0,1-1.7,4.56,6.14,6.14,0,0,1-4.33,1.58A6.22,6.22,0,0,1,178.84,11.49Zm9.51,6.56V48.54a1.5,1.5,0,0,1-1.5,1.5h-7.28a1.49,1.49,0,0,1-1.48-1.49V18a1.48,1.48,0,0,1,1.48-1.48h7.28A1.5,1.5,0,0,1,188.35,18.05Z"/><path class="cls-1" d="M248.44,20q3.69,3.78,3.69,10.5V48.82A1.23,1.23,0,0,1,250.9,50h-7.75a1.22,1.22,0,0,1-1.22-1.22v-17a6.92,6.92,0,0,0-1.71-5,7.15,7.15,0,0,0-9.42,0,6.92,6.92,0,0,0-1.71,5v17A1.23,1.23,0,0,1,227.86,50h-7.75a1.22,1.22,0,0,1-1.22-1.22v-17a6.92,6.92,0,0,0-1.71-5,7.15,7.15,0,0,0-9.42,0,6.92,6.92,0,0,0-1.71,5v17A1.22,1.22,0,0,1,204.83,50H197a1.22,1.22,0,0,1-1.22-1.22v-31A1.21,1.21,0,0,1,197,16.56h7.82a1.22,1.22,0,0,1,1.22,1.22h0a1.21,1.21,0,0,0,1.95,1,11.94,11.94,0,0,1,2.13-1.32,12.83,12.83,0,0,1,5.7-1.23,13.87,13.87,0,0,1,6.75,1.62A11.42,11.42,0,0,1,226.29,21a1.23,1.23,0,0,0,1.94,0A13.89,13.89,0,0,1,232,17.94a12.81,12.81,0,0,1,6.54-1.74Q244.75,16.2,248.44,20Z"/><path class="cls-1" d="M265.72,48.42a15.38,15.38,0,0,1-6.18-6,17.93,17.93,0,0,1-2.25-9.12,17.78,17.78,0,0,1,2.28-9.09,15.47,15.47,0,0,1,6.24-6,19.82,19.82,0,0,1,17.76,0,15.47,15.47,0,0,1,6.24,6,17.78,17.78,0,0,1,2.28,9.09,17.6,17.6,0,0,1-2.31,9.09,15.62,15.62,0,0,1-6.3,6,18.83,18.83,0,0,1-8.91,2.1A18.48,18.48,0,0,1,265.72,48.42Zm13.86-8.94a8.58,8.58,0,0,0,2.07-6.18c0-3.87-1.4-6.45-4.18-7.73a6.91,6.91,0,0,0-3-.61,6.45,6.45,0,0,0-4.79,2.13q-2,2.13-2,6.21a8.91,8.91,0,0,0,1.95,6.18,6.31,6.31,0,0,0,4.89,2.16A6.68,6.68,0,0,0,279.58,39.48Z"/><path class="cls-1" d="M76.86,61.21V93a1.48,1.48,0,0,1-1.48,1.48H72.64A1.48,1.48,0,0,1,71.16,93V77.65A1.48,1.48,0,0,0,68.33,77L61,93.6a1.46,1.46,0,0,1-1.35.88h-2a1.48,1.48,0,0,1-1.35-.87L48.8,77a1.49,1.49,0,0,0-2.84.61V93a1.48,1.48,0,0,1-1.48,1.48H41.74A1.48,1.48,0,0,1,40.26,93V61.21a1.49,1.49,0,0,1,1.48-1.48h3.71a1.47,1.47,0,0,1,1.35.88l10.3,23a1.66,1.66,0,0,0,3,0l10.25-23a1.49,1.49,0,0,1,1.35-.88h3.66A1.48,1.48,0,0,1,76.86,61.21Z"/><path class="cls-1" d="M108.11,82.83h-18a1.48,1.48,0,0,0-1.41,1.89,7.29,7.29,0,0,0,2.12,3.41,7.72,7.72,0,0,0,5.4,2,6.66,6.66,0,0,0,6.14-3.19,1.43,1.43,0,0,1,1.22-.66h3.06a1.47,1.47,0,0,1,1.29,2.18,12.66,12.66,0,0,1-3.58,4.05,13.27,13.27,0,0,1-8.13,2.42,14.08,14.08,0,0,1-7.07-1.77,12.61,12.61,0,0,1-4.9-5,15.18,15.18,0,0,1-1.78-7.48,15.6,15.6,0,0,1,1.73-7.47,12.12,12.12,0,0,1,4.85-5,14.48,14.48,0,0,1,7.17-1.75,14.06,14.06,0,0,1,7,1.7A12,12,0,0,1,107.91,73a14.31,14.31,0,0,1,1.7,7.07c0,.5,0,1,0,1.42A1.48,1.48,0,0,1,108.11,82.83ZM102,78.23a1.47,1.47,0,0,0,1.42-1.83,6.28,6.28,0,0,0-2-3.22A8.06,8.06,0,0,0,96,71.28a7.35,7.35,0,0,0-7.11,5,1.46,1.46,0,0,0,1.39,1.93Z"/><path class="cls-1" d="M134.94,67.83a9.63,9.63,0,0,1,4,4,13.13,13.13,0,0,1,1.45,6.4V93.54a.94.94,0,0,1-.94.94h-3.76a1,1,0,0,1-1-.94V79.08a8,8,0,0,0-1.85-5.67,6.56,6.56,0,0,0-5-2,6.65,6.65,0,0,0-5.07,2,7.92,7.92,0,0,0-1.88,5.67V93.54a.94.94,0,0,1-.94.94h-3.81a1,1,0,0,1-1-.94V67.88a1,1,0,0,1,1-.95H120a1,1,0,0,1,.94.95h0a1,1,0,0,0,1.54.73,10.17,10.17,0,0,1,2-1.18,11.47,11.47,0,0,1,4.62-1A12.37,12.37,0,0,1,134.94,67.83Z"/><path class="cls-1" d="M147.49,73.23a12.59,12.59,0,0,1,11.32-6.75,13,13,0,0,1,5.33,1.18A12.37,12.37,0,0,1,166.45,69a1.18,1.18,0,0,0,1.86-1V58.67a1.19,1.19,0,0,1,1.19-1.19h3.37a1.19,1.19,0,0,1,1.19,1.19V93.29a1.19,1.19,0,0,1-1.19,1.19H169.5a1.19,1.19,0,0,1-1.19-1.19h0a1.18,1.18,0,0,0-1.91-.93,12.46,12.46,0,0,1-2,1.27,12,12,0,0,1-5.68,1.3,12.36,12.36,0,0,1-6.57-1.82,12.88,12.88,0,0,1-4.7-5.1,15.72,15.72,0,0,1-1.73-7.43A15.29,15.29,0,0,1,147.49,73.23Zm19.65,2.5a8.33,8.33,0,0,0-3.08-3.2,8.08,8.08,0,0,0-4.1-1.1,8.16,8.16,0,0,0-4.1,1.08,8,8,0,0,0-3.07,3.15,9.74,9.74,0,0,0-1.18,4.92,10.18,10.18,0,0,0,1.18,5,8.19,8.19,0,0,0,3.1,3.28,8.07,8.07,0,0,0,8.17,0,8.25,8.25,0,0,0,3.08-3.22,10.18,10.18,0,0,0,1.17-5A10,10,0,0,0,167.14,75.73Z"/><path class="cls-1" d="M205.3,82.83h-18a1.48,1.48,0,0,0-1.41,1.89A7.19,7.19,0,0,0,188,88.13a7.72,7.72,0,0,0,5.4,2,6.67,6.67,0,0,0,6.14-3.19,1.43,1.43,0,0,1,1.22-.66h3.06a1.47,1.47,0,0,1,1.28,2.19,12.47,12.47,0,0,1-3.57,4,13.29,13.29,0,0,1-8.13,2.42,14.08,14.08,0,0,1-7.07-1.77,12.61,12.61,0,0,1-4.9-5,15.18,15.18,0,0,1-1.78-7.48,15.6,15.6,0,0,1,1.73-7.47,12.12,12.12,0,0,1,4.85-5,14.48,14.48,0,0,1,7.17-1.75,14.06,14.06,0,0,1,7,1.7A12.07,12.07,0,0,1,205.11,73a14.42,14.42,0,0,1,1.7,7.07c0,.5,0,1,0,1.42A1.48,1.48,0,0,1,205.3,82.83Zm-6.1-4.6a1.47,1.47,0,0,0,1.42-1.84,6.29,6.29,0,0,0-2-3.21,8.08,8.08,0,0,0-5.45-1.9,7.35,7.35,0,0,0-7.11,5,1.46,1.46,0,0,0,1.39,1.93Z"/><path class="cls-1" d="M216.59,93.76a10.28,10.28,0,0,1-4.08-3.2,8.13,8.13,0,0,1-1.32-2.67A1.49,1.49,0,0,1,212.63,86h3A1.48,1.48,0,0,1,217,87a4.22,4.22,0,0,0,1.48,2,6.08,6.08,0,0,0,3.82,1.17,6.53,6.53,0,0,0,3.73-.92,2.8,2.8,0,0,0,1.32-2.38,2.44,2.44,0,0,0-1.47-2.3,28.07,28.07,0,0,0-4.68-1.65,42.32,42.32,0,0,1-5.05-1.65,8.8,8.8,0,0,1-3.37-2.45,6.42,6.42,0,0,1-1.43-4.35,6.77,6.77,0,0,1,1.3-4,8.66,8.66,0,0,1,3.73-2.88,13.87,13.87,0,0,1,5.57-1,11.5,11.5,0,0,1,7.58,2.38,8.23,8.23,0,0,1,2.86,4.76A1.45,1.45,0,0,1,231,75.33h-2.83a1.51,1.51,0,0,1-1.42-1.09,3.94,3.94,0,0,0-1.29-1.86,5.63,5.63,0,0,0-3.65-1.1,6,6,0,0,0-3.45.85A2.67,2.67,0,0,0,217.13,74a2.92,2.92,0,0,0,1.24,2.61,6.21,6.21,0,0,0,1.49.79c.77.28,1.9.64,3.4,1.07a38.36,38.36,0,0,1,4.93,1.63,9.22,9.22,0,0,1,3.32,2.42A6.44,6.44,0,0,1,233,86.78a7.09,7.09,0,0,1-1.3,4.2,8.59,8.59,0,0,1-3.67,2.9,15.2,15.2,0,0,1-11.4-.12Z"/><path class="cls-1" d="M251.52,84.85l-4.76,10.86a1.48,1.48,0,0,1-1.36.89h-.81a1.48,1.48,0,0,1-1.44-1.85l2.79-10.83a1.49,1.49,0,0,1,1.44-1.12h2.8A1.46,1.46,0,0,1,251.52,84.85ZM245.62,68a3.65,3.65,0,0,1,2.6-6.25,3.47,3.47,0,0,1,2.55,1,3.75,3.75,0,0,1,.16,5A3.7,3.7,0,0,1,247.88,69,3.48,3.48,0,0,1,245.62,68Z"/></g></g></svg>