<svg xmlns="http://www.w3.org/2000/svg" viewBox="0 0 244.59 244.59"><defs><style>.cls-1{fill:#fff;}</style></defs><g id="Layer_2" data-name="Layer 2"><g id="Layer_1-2" data-name="Layer 1"><circle class="cls-1" cx="122.3" cy="122.3" r="122.3"/><path d="M168.06,76.85H147.33a3,3,0,0,0-2.79,1.89l-21.47,53.5a3,3,0,0,1-5.57,0L95.81,78.73A3,3,0,0,0,93,76.85H72.12A3.17,3.17,0,0,0,69,80v58.11c0,3.25-.73,5.72-2.18,7.43a7.62,7.62,0,0,1-6.15,2.57A8.05,8.05,0,0,1,54,145.24a10.25,10.25,0,0,1-1.88-4.19,5.72,5.72,0,0,0-5.66-4.33H33.14A3.19,3.19,0,0,0,30,140.14q.9,12.41,8.47,19.52,8.6,8.09,22.82,8.08,13.59,0,21.6-7.69t8-21.92V118a3,3,0,0,1,2.9,1.93l16.8,44.89a3.13,3.13,0,0,0,2.92,2h13.44a3,3,0,0,0,2.82-2l13.58-36.42a3,3,0,0,1,5.81,1.05v34.32a3,3,0,0,0,3,3h15.91a3,3,0,0,0,3-3v-84A3,3,0,0,0,168.06,76.85Z"/><path d="M215.08,135.62,202.33,164.7a3.16,3.16,0,0,1-2.89,1.89h-3.37a3.16,3.16,0,0,1-3-3.94l7.49-29.08a3.14,3.14,0,0,1,3.05-2.36h8.63A3.15,3.15,0,0,1,215.08,135.62Zm-15.5-42.49a9.36,9.36,0,0,1,6.66-16,8.92,8.92,0,0,1,6.54,2.69,9.6,9.6,0,0,1,0,13.33,8.89,8.89,0,0,1-6.54,2.7A9,9,0,0,1,199.58,93.13Z"/></g></g></svg>