<svg xmlns="http://www.w3.org/2000/svg" viewBox="0 0 185.51 90.88"><defs><style>.cls-1{fill:#fff;}</style></defs><g id="Layer_2" data-name="Layer 2"><g id="Layer_1-2" data-name="Layer 1"><path class="cls-1" d="M138.09,0H117.36a3,3,0,0,0-2.78,1.88L93.11,55.39a3,3,0,0,1-5.57,0L65.84,1.87A3,3,0,0,0,63.06,0H42.15A3.16,3.16,0,0,0,39,3.16V61.27q0,4.87-2.18,7.44a7.65,7.65,0,0,1-6.16,2.56A8,8,0,0,1,24,68.39a10.17,10.17,0,0,1-1.89-4.2,5.73,5.73,0,0,0-5.65-4.33H3.18A3.19,3.19,0,0,0,0,63.28Q.9,75.69,8.48,82.81q8.58,8.07,22.81,8.07,13.59,0,21.6-7.69t8-21.92V41.15a2.93,2.93,0,0,1,2.89,1.93L80.6,88a3.12,3.12,0,0,0,2.92,2H97a3,3,0,0,0,2.81-2l13.58-36.41a3,3,0,0,1,5.82,1.05V87a3,3,0,0,0,3,3h15.91a3,3,0,0,0,3-3V3A3,3,0,0,0,138.09,0Z"/><path class="cls-1" d="M185.11,58.76,172.36,87.85a3.15,3.15,0,0,1-2.88,1.88h-3.37a3.15,3.15,0,0,1-3.05-3.93l7.48-29.08a3.14,3.14,0,0,1,3.05-2.37h8.64A3.15,3.15,0,0,1,185.11,58.76Zm-15.5-42.48a9.07,9.07,0,0,1-2.69-6.67A9.06,9.06,0,0,1,169.61,3,9,9,0,0,1,176.28.26,8.86,8.86,0,0,1,182.81,3a9,9,0,0,1,2.7,6.66,9,9,0,0,1-2.7,6.67A8.9,8.9,0,0,1,176.28,19,9.07,9.07,0,0,1,169.61,16.28Z"/></g></g></svg>